<svg width="14" height="16" viewBox="0 0 14 16" fill="none" xmlns="http://www.w3.org/2000/svg">
<mask id="mask0_1189_4" style="mask-type:luminance" maskUnits="userSpaceOnUse" x="0" y="0" width="14" height="16">
<path fill-rule="evenodd" clip-rule="evenodd" d="M0 0H14V16H0V0Z" fill="white"/>
</mask>
<g mask="url(#mask0_1189_4)">
<path fill-rule="evenodd" clip-rule="evenodd" d="M9.72524 4.13376H5.27844C5.0825 4.13376 4.92545 4.26367 4.92545 4.42421V5.85807C4.92545 6.00023 4.79383 6.124 4.62032 6.13258C4.43186 6.14361 4.27332 6.01983 4.27332 5.86787V2.76731C4.27332 1.53566 5.49682 0.533188 7.00002 0.533188C8.50323 0.533188 9.72524 1.53566 9.72524 2.76731V4.13376ZM6.83768 12.9001H2.76931C2.58982 12.9001 2.44324 12.78 2.44324 12.6329C2.44324 12.4858 2.58982 12.3657 2.76931 12.3657H6.83768C7.01717 12.3657 7.16225 12.4858 7.16225 12.6329C7.16225 12.78 7.01717 12.9001 6.83768 12.9001ZM5.12956 14.2345H2.76931C2.58982 14.2345 2.44324 14.1144 2.44324 13.9674C2.44324 13.8203 2.58982 13.7014 2.76931 13.7014H5.12956C5.30905 13.7014 5.45563 13.8203 5.45563 13.9674C5.45563 14.1144 5.30905 14.2345 5.12956 14.2345ZM13.0012 5.34887C12.9279 4.65645 12.2309 4.13315 11.3813 4.13315C11.1868 4.13315 11.0268 4.26306 11.0268 4.4236V5.85746C11.0268 5.99962 10.8967 6.1234 10.7232 6.13197C10.5347 6.143 10.3777 6.01923 10.3777 5.86726V2.7667C10.3777 1.24093 8.86248 -0.000518799 7.0003 -0.000518799C5.13812 -0.000518799 3.62295 1.24093 3.62295 2.7667V4.13315H2.61783C1.76975 4.13315 1.07274 4.65645 0.997954 5.34887L0.00628698 14.5501C-0.0774737 15.327 0.67039 15.9998 1.62765 15.9998H12.373C13.3287 15.9998 14.0766 15.327 13.9943 14.5501L13.0012 5.34887Z" fill="#E0F5FF"/>
</g>
</svg>
