<svg width="24" height="24" viewBox="0 0 24 24" fill="none" xmlns="http://www.w3.org/2000/svg">
<g clip-path="url(#clip0_1189_94)">
<path d="M11.8 8C9.2 8 7.5 8.8 7.5 9.2C7.5 9.6 9.1 10.4 11.8 10.4V11.4C10.2 11.4 8.5 11.1 7.5 10.5V12.1C7.5 12.5 9.1 13.4 11.8 13.4V14.4C10.2 14.4 8.5 14.1 7.5 13.5V14.5C7.5 15.1 9.2 16 11.8 16C14.4 16 16.1 15.1 16.1 14.5V9.2C16.1 8.8 14.4 8 11.8 8Z" fill="#CAD5F9"/>
<path d="M18.7 3H4.9C3.8 3 3 3.8 3 4.9V18.7C3 19.7 3.8 20.6 4.9 20.6H18.7C19.7 20.6 20.6 19.8 20.6 18.7V4.9C20.6 3.8 19.8 3 18.7 3ZM17.1 14.6C17.1 16.2 14.4 17.1 11.8 17.1C9.2 17.1 6.5 16.2 6.5 14.6V9.2C6.5 6.2 17 6.2 17 9.2V14.6H17.1Z" fill="#CAD5F9"/>
</g>
<defs>
<clipPath id="clip0_1189_94">
<rect width="17.6" height="17.6" fill="white" transform="translate(3 3)"/>
</clipPath>
</defs>
</svg>
