<svg width="24" height="24" viewBox="0 0 24 24" fill="none" xmlns="http://www.w3.org/2000/svg">
<g clip-path="url(#clip0_1189_205)">
<path d="M19.6316 18.3158C19.6316 18.2105 19.6316 18.1053 19.6316 18.1053V9.1579C19.6316 8.21053 19 7.57895 18.1579 7.57895H9.10526C8.26316 7.57895 7.73684 8.31579 7.73684 9.1579V18.1053C7.73684 19.0526 8.36842 19.6842 9.21053 19.6842H18.2632H21L19.6316 18.3158ZM10.7895 11.8947V10.9474H16.6842V11.8947H10.7895ZM10.7895 14.1053V13.1579H16.6842V14.1053H10.7895ZM10.7895 16.3158V15.3684H14.7895V16.3158H10.7895ZM8.15789 5.57895C6.89474 5.57895 5.94737 6.63158 5.94737 8V16.1053H4.47368C3.63158 16.1053 3 15.3684 3 14.5263V5.57895C3 4.63158 3.63158 4 4.36842 4H15.2105C15.9474 4 16.5789 4.73684 16.5789 5.57895H8.15789Z" fill="#CAD5F9"/>
</g>
<defs>
<clipPath id="clip0_1189_205">
<rect width="18" height="15.6842" fill="white" transform="translate(3 4)"/>
</clipPath>
</defs>
</svg>
