<svg width="24" height="24" viewBox="0 0 24 24" fill="none" xmlns="http://www.w3.org/2000/svg">
<g clip-path="url(#clip0_1189_200)">
<path d="M19 5V6.2H12.4V5H19ZM6.4 5V6.2H5V5H6.4ZM19 11.4V12.6H12.4V11.4H19ZM6.4 11.4V12.6H5V11.4H6.4ZM19 17.8V19H12.4V17.8H19ZM6.4 17.8V19H5V17.8H6.4ZM19.9 3H10.4V8.2H19.9C20.5 8.2 21 7.7 21 7.1V4.1C21 3.5 20.5 3 19.9 3ZM8.4 3H4.1C3.5 3 3 3.5 3 4.1V7.1C3 7.7 3.5 8.2 4.1 8.2H8.4V3ZM19.9 9.4H10.4V14.6H19.9C20.5 14.6 21 14.1 21 13.5V10.5C21 9.9 20.5 9.4 19.9 9.4ZM8.4 9.4H4.1C3.5 9.4 3 9.9 3 10.5V13.5C3 14.1 3.5 14.6 4.1 14.6H8.4V9.4ZM19.9 15.8H10.4V21H19.9C20.5 21 21 20.5 21 19.9V16.9C21 16.3 20.5 15.8 19.9 15.8ZM8.4 15.8H4.1C3.5 15.8 3 16.3 3 16.9V19.9C3 20.5 3.5 21 4.1 21H8.4V15.8Z" fill="#CAD5F9"/>
</g>
<defs>
<clipPath id="clip0_1189_200">
<rect width="18" height="18" fill="white" transform="translate(3 3)"/>
</clipPath>
</defs>
</svg>
